<svg id="visual" viewBox="0 0 900 600" width="900" height="600" xmlns="http://www.w3.org/2000/svg" xmlns:xlink="http://www.w3.org/1999/xlink" version="1.1"><path d="M0 61L13.7 67C27.3 73 54.7 85 82 97C109.3 109 136.7 121 163.8 124C191 127 218 121 245.2 112C272.3 103 299.7 91 327 91C354.3 91 381.7 103 409 109C436.3 115 463.7 115 491 111C518.3 107 545.7 99 573 94C600.3 89 627.7 87 654.8 96C682 105 709 125 736.2 134C763.3 143 790.7 141 818 130C845.3 119 872.7 99 886.3 89L900 79L900 0L886.3 0C872.7 0 845.3 0 818 0C790.7 0 763.3 0 736.2 0C709 0 682 0 654.8 0C627.7 0 600.3 0 573 0C545.7 0 518.3 0 491 0C463.7 0 436.3 0 409 0C381.7 0 354.3 0 327 0C299.7 0 272.3 0 245.2 0C218 0 191 0 163.8 0C136.7 0 109.3 0 82 0C54.7 0 27.3 0 13.7 0L0 0Z" fill="#588cef"></path><path d="M0 349L13.7 348C27.3 347 54.7 345 82 338C109.3 331 136.7 319 163.8 320C191 321 218 335 245.2 335C272.3 335 299.7 321 327 312C354.3 303 381.7 299 409 284C436.3 269 463.7 243 491 235C518.3 227 545.7 237 573 234C600.3 231 627.7 215 654.8 233C682 251 709 303 736.2 311C763.3 319 790.7 283 818 273C845.3 263 872.7 279 886.3 287L900 295L900 77L886.3 87C872.7 97 845.3 117 818 128C790.7 139 763.3 141 736.2 132C709 123 682 103 654.8 94C627.7 85 600.3 87 573 92C545.7 97 518.3 105 491 109C463.7 113 436.3 113 409 107C381.7 101 354.3 89 327 89C299.7 89 272.3 101 245.2 110C218 119 191 125 163.8 122C136.7 119 109.3 107 82 95C54.7 83 27.3 71 13.7 65L0 59Z" fill="#3976e9"></path><path d="M0 427L13.7 434C27.3 441 54.7 455 82 450C109.3 445 136.7 421 163.8 409C191 397 218 397 245.2 402C272.3 407 299.7 417 327 413C354.3 409 381.7 391 409 371C436.3 351 463.7 329 491 317C518.3 305 545.7 303 573 301C600.3 299 627.7 297 654.8 315C682 333 709 371 736.2 375C763.3 379 790.7 349 818 350C845.3 351 872.7 383 886.3 399L900 415L900 293L886.3 285C872.7 277 845.3 261 818 271C790.7 281 763.3 317 736.2 309C709 301 682 249 654.8 231C627.7 213 600.3 229 573 232C545.7 235 518.3 225 491 233C463.7 241 436.3 267 409 282C381.7 297 354.3 301 327 310C299.7 319 272.3 333 245.2 333C218 333 191 319 163.8 318C136.7 317 109.3 329 82 336C54.7 343 27.3 345 13.7 346L0 347Z" fill="#085fe1"></path><path d="M0 523L13.7 528C27.3 533 54.7 543 82 548C109.3 553 136.7 553 163.8 553C191 553 218 553 245.2 547C272.3 541 299.7 529 327 528C354.3 527 381.7 537 409 539C436.3 541 463.7 535 491 536C518.3 537 545.7 545 573 548C600.3 551 627.7 549 654.8 550C682 551 709 555 736.2 547C763.3 539 790.7 519 818 511C845.3 503 872.7 507 886.3 509L900 511L900 413L886.3 397C872.7 381 845.3 349 818 348C790.7 347 763.3 377 736.2 373C709 369 682 331 654.8 313C627.7 295 600.3 297 573 299C545.7 301 518.3 303 491 315C463.7 327 436.3 349 409 369C381.7 389 354.3 407 327 411C299.7 415 272.3 405 245.2 400C218 395 191 395 163.8 407C136.7 419 109.3 443 82 448C54.7 453 27.3 439 13.7 432L0 425Z" fill="#0053c3"></path><path d="M0 601L13.7 601C27.3 601 54.7 601 82 601C109.3 601 136.7 601 163.8 601C191 601 218 601 245.2 601C272.3 601 299.7 601 327 601C354.3 601 381.7 601 409 601C436.3 601 463.7 601 491 601C518.3 601 545.7 601 573 601C600.3 601 627.7 601 654.8 601C682 601 709 601 736.2 601C763.3 601 790.7 601 818 601C845.3 601 872.7 601 886.3 601L900 601L900 509L886.3 507C872.7 505 845.3 501 818 509C790.7 517 763.3 537 736.2 545C709 553 682 549 654.8 548C627.7 547 600.3 549 573 546C545.7 543 518.3 535 491 534C463.7 533 436.3 539 409 537C381.7 535 354.3 525 327 526C299.7 527 272.3 539 245.2 545C218 551 191 551 163.8 551C136.7 551 109.3 551 82 546C54.7 541 27.3 531 13.7 526L0 521Z" fill="#0047a5"></path></svg>